<svg width="11" height="11" viewBox="0 0 11 11" fill="none" xmlns="http://www.w3.org/2000/svg">
<path d="M9.89648 5.64644C10.0917 5.45118 10.4083 5.45119 10.6035 5.64644C10.7988 5.84171 10.7988 6.15821 10.6035 6.35348L6.93896 10.018C6.47015 10.4867 5.83427 10.75 5.17139 10.75C4.50851 10.7499 3.87259 10.4867 3.40381 10.018L0.731934 7.34615C0.26325 6.87737 4.65872e-05 6.24146 0 5.57857C0 4.91569 0.263298 4.27981 0.731934 3.81099L4.39648 0.146444C4.59174 -0.0488164 4.90825 -0.0488129 5.10352 0.146444C5.29878 0.341706 5.29878 0.658213 5.10352 0.853475L1.43896 4.51754C1.15773 4.79883 1 5.1808 1 5.57857C1.00005 5.97628 1.15826 6.35787 1.43945 6.63912L4.11035 9.31051H4.11084C4.39209 9.5917 4.77368 9.74991 5.17139 9.74996C5.56916 9.74996 5.95064 9.59174 6.23193 9.31051L9.89648 5.64644Z" fill="#FFC802"/>
</svg>
