<svg width="11" height="13" viewBox="0 0 11 13" fill="none" xmlns="http://www.w3.org/2000/svg">
<path d="M0 12V1C0 0.734783 0.105433 0.480505 0.292969 0.292969C0.480505 0.105433 0.734783 0 1 0H7C7.13261 0 7.25975 0.0527162 7.35352 0.146484L10.8535 3.64648C10.9473 3.74025 11 3.86739 11 4V12C11 12.2652 10.8946 12.5195 10.707 12.707C10.5195 12.8946 10.2652 13 10 13H1C0.734784 13 0.480506 12.8946 0.292969 12.707C0.105433 12.5195 0 12.2652 0 12ZM1 12H10V4.20703L6.79297 1H1V12Z" fill="#10575C"/>
</svg>
