<svg width="18" height="18" viewBox="0 0 18 18" fill="none" xmlns="http://www.w3.org/2000/svg">
<path d="M9 15.0005C9 14.4037 9.23705 13.8314 9.65901 13.4095C10.081 12.9875 10.6533 12.7505 11.25 12.7505H15.5822C16.0918 12.7505 16.5864 12.5776 16.9849 12.26C17.3834 11.9423 17.6623 11.4988 17.7759 11.002C17.9308 10.3199 18.006 9.6221 18 8.92264C17.9578 3.97077 13.86 -0.0492318 8.90625 0.000455699C6.53558 0.0251515 4.27041 0.984254 2.60281 2.66941C0.935203 4.35457 -0.000128614 6.62966 1.32649e-08 9.00046C1.32649e-08 12.9201 2.50594 15.8855 6 17.1201C6.33924 17.2401 6.7023 17.2769 7.05871 17.2275C7.41513 17.1782 7.75451 17.044 8.04837 16.8364C8.34224 16.6288 8.58202 16.3537 8.7476 16.0342C8.91319 15.7148 8.99974 15.3603 9 15.0005Z" stroke="#10575C" stroke-width="2" stroke-linecap="round" stroke-linejoin="round"/>
</svg>
