<svg width="20" height="19" viewBox="0 0 20 19" fill="none" xmlns="http://www.w3.org/2000/svg">
<path d="M19.56 0.177525C19.4276 0.0847292 19.2743 0.0261237 19.1138 0.00693101C18.9533 -0.0122617 18.7905 0.00855451 18.64 0.0675249L5.81 4.99752H2C0.9 4.99752 0 5.89752 0 6.99752V10.9975C0 12.0975 0.9 12.9975 2 12.9975H5.81L6.81 13.3875L6.34 14.7875C6.01 15.7875 6.51 16.8875 7.49 17.2775L10.63 18.5375C10.87 18.6275 11.12 18.6775 11.37 18.6775C11.66 18.6775 11.95 18.6175 12.21 18.4875C12.71 18.2575 13.09 17.8275 13.26 17.3075L13.68 16.0375L18.61 17.9375C18.73 17.9775 18.85 18.0075 18.97 18.0075C19.17 18.0075 19.37 17.9475 19.54 17.8275C19.81 17.6375 19.97 17.3275 19.97 17.0075V0.997525C19.97 0.667525 19.81 0.357525 19.54 0.177525H19.56ZM1.99 6.99752H4.99V10.9975H1.99V6.99752ZM11.38 16.6775L8.24 15.4175L8.68 14.0975L11.83 15.3075L11.38 16.6675V16.6775ZM17.99 15.5475L6.99 11.3175V6.68752L17.99 2.45753V15.5475Z" fill="#3FA08D"/>
</svg>
