<svg width="5" height="3" viewBox="0 0 5 3" fill="none" xmlns="http://www.w3.org/2000/svg">
<path d="M0 0.5C0 0.223858 0.223858 0 0.5 0C0.776142 0 1 0.223858 1 0.5C1 0.897825 1.15815 1.27924 1.43945 1.56055C1.72076 1.84185 2.10218 2 2.5 2C2.89782 2 3.27924 1.84185 3.56055 1.56055C3.84185 1.27924 4 0.897824 4 0.5C4 0.223858 4.22386 0 4.5 0C4.77614 0 5 0.223858 5 0.5C5 1.16304 4.73642 1.79874 4.26758 2.26758C3.79874 2.73642 3.16304 3 2.5 3C1.83696 3 1.20126 2.73642 0.732422 2.26758C0.263581 1.79874 0 1.16304 0 0.5Z" fill="#1DB880"/>
</svg>
