<svg preserveAspectRatio="none" width="100%" height="100%" overflow="visible" style="display: block;" viewBox="0 0 24 24" fill="none" xmlns="http://www.w3.org/2000/svg">
<g id="CarProfile" clip-path="url(#clip0_0_14)">
<g id="Vector">
</g>
<path id="Vector_2" d="M6 18.75C7.24264 18.75 8.25 17.7426 8.25 16.5C8.25 15.2574 7.24264 14.25 6 14.25C4.75736 14.25 3.75 15.2574 3.75 16.5C3.75 17.7426 4.75736 18.75 6 18.75Z" stroke="var(--stroke-0, #10575C)" stroke-width="2" stroke-linecap="round" stroke-linejoin="round"/>
<path id="Vector_3" d="M18 18.75C19.2426 18.75 20.25 17.7426 20.25 16.5C20.25 15.2574 19.2426 14.25 18 14.25C16.7574 14.25 15.75 15.2574 15.75 16.5C15.75 17.7426 16.7574 18.75 18 18.75Z" stroke="var(--stroke-0, #10575C)" stroke-width="2" stroke-linecap="round" stroke-linejoin="round"/>
<path id="Vector_4" d="M8.25 16.5H15.75" stroke="var(--stroke-0, #10575C)" stroke-width="2" stroke-linecap="round" stroke-linejoin="round"/>
<path id="Vector_5" d="M20.25 16.5H22.5C22.6989 16.5 22.8897 16.421 23.0303 16.2803C23.171 16.1397 23.25 15.9489 23.25 15.75V12C23.25 11.8011 23.171 11.6103 23.0303 11.4697C22.8897 11.329 22.6989 11.25 22.5 11.25H19.5L15.2194 6.96937C15.0788 6.82899 14.8883 6.75009 14.6897 6.75H4.15125C4.0279 6.75007 3.90647 6.78057 3.79773 6.83879C3.68898 6.897 3.59627 6.98114 3.52781 7.08375L0.75 11.25V15.75C0.75 15.9489 0.829018 16.1397 0.96967 16.2803C1.11032 16.421 1.30109 16.5 1.5 16.5H3.75" stroke="var(--stroke-0, #10575C)" stroke-width="2" stroke-linecap="round" stroke-linejoin="round"/>
<path id="Vector_6" d="M19.5 11.25H0.75" stroke="var(--stroke-0, #10575C)" stroke-width="2" stroke-linecap="round" stroke-linejoin="round"/>
</g>
<defs>
<clipPath id="clip0_0_14">
<rect width="24" height="24" fill="white"/>
</clipPath>
</defs>
</svg>
