<svg width="23" height="10" viewBox="0 0 23 10" fill="none" xmlns="http://www.w3.org/2000/svg">
<path d="M19.5 9.75H21.75C21.9489 9.75 22.1397 9.67098 22.2803 9.53033C22.421 9.38968 22.5 9.19891 22.5 9V5.25C22.5 5.05109 22.421 4.86032 22.2803 4.71967C22.1397 4.57902 21.9489 4.5 21.75 4.5H18.75L14.4694 0.219375C14.3288 0.0789879 14.1383 9.20634e-05 13.9397 0H3.40125C3.2779 7.40671e-05 3.15647 0.0305698 3.04773 0.0887861C2.93898 0.147002 2.84627 0.231142 2.77781 0.33375L0 4.5V9C0 9.19891 0.0790176 9.38968 0.21967 9.53033C0.360322 9.67098 0.551088 9.75 0.75 9.75H3" stroke="#10575C" stroke-width="2" stroke-linecap="round" stroke-linejoin="round"/>
</svg>
