<svg preserveAspectRatio="none" width="100%" height="100%" overflow="visible" style="display: block;" viewBox="0 0 282.176 63.9371" fill="none" xmlns="http://www.w3.org/2000/svg">
<path id="Vector (Stroke)" d="M280.463 0.223838C280.832 -0.0580827 281.457 -0.0761581 281.858 0.183592C282.258 0.443355 282.284 0.882554 281.914 1.16449C258.366 19.1451 234.616 25.3081 210.791 19.2176C188.012 13.3942 165.055 19.1451 141.794 36.9065C118.273 54.8658 94.5967 62.4962 70.8128 59.4578C47.6782 56.5023 24.5209 57.9781 1.32334 63.8954C0.811025 64.0261 0.245168 63.8397 0.0593897 63.4793C-0.126367 63.1189 0.138141 62.7209 0.650395 62.5901C24.1596 56.5934 47.6704 55.0904 71.1653 58.0919C94.0108 61.0104 117.054 53.7485 140.343 35.9658C163.891 17.9852 187.642 11.8222 211.466 17.9127C234.245 23.7361 257.202 17.9852 280.463 0.223838Z" fill="var(--fill-0, #E1E1E1)"/>
</svg>
