<svg xmlns="http://www.w3.org/2000/svg" viewBox="0 0 75.1533 38.041" width="75.1533" height="38.041" fill="none" preserveAspectRatio="xMidYMid meet" style="display:block">
  <g id="Group-22">
    <path id="Subtract" d="M37.5771 0C58.33 9.89822e-05 75.1531 16.8234 75.1533 37.5762C75.1533 37.8338 74.9402 38.041 74.6826 38.041H66.3331C66.0781 38.041 65.875 37.8321 65.875 37.5771C65.875 21.9484 53.2059 9.27841 37.5771 9.27832C21.9484 9.27847 9.27832 21.9484 9.27832 37.5771C9.27832 37.8321 9.07526 38.041 8.82027 38.041H0.470745C0.213089 38.041 6.25744e-07 37.8338 0 37.5762C0.00022998 16.8234 16.8244 0.000148419 37.5771 0Z" fill="#C2C3C3"/>
    <path id="Subtract_2" d="M37.5771 0C44.8551 3.47129e-05 51.6496 2.0696 57.4047 5.65181C59.4044 6.89647 59.8293 9.54952 58.5535 11.5295C57.0644 13.8407 53.8908 14.2896 51.4984 12.9348C47.3881 10.6073 42.6379 9.27835 37.5771 9.27832C21.9484 9.27847 9.27832 21.9484 9.27832 37.5771C9.27832 37.8321 9.07526 38.041 8.82027 38.041H0.470745C0.213089 38.041 6.25744e-07 37.8338 0 37.5762C0.00022998 16.8234 16.8244 0.000148419 37.5771 0Z" fill="#F8FAF9"/>
  </g>
</svg>
