<svg preserveAspectRatio="none" width="100%" height="100%" overflow="visible" style="display: block;" viewBox="0 0 14.8451 14.8451" fill="none" xmlns="http://www.w3.org/2000/svg">
<g id="Sparkle" clip-path="url(#clip0_0_8)">
<g id="Vector">
</g>
<path id="Vector (Stroke)" d="M6.54505 2.79152C6.68563 2.80162 6.82206 2.84375 6.94383 2.91474L7.00335 2.95253L7.05972 2.99486C7.18737 3.0982 7.28542 3.23402 7.3433 3.38862L7.34376 3.38907L8.46006 6.37724L11.4592 7.4672L11.5245 7.49363C11.6529 7.55176 11.7663 7.6385 11.8559 7.74719L11.8983 7.80362L11.9371 7.8628C12.0211 8.00395 12.0658 8.16557 12.0665 8.33065C12.0674 8.51934 12.0103 8.70389 11.9031 8.85919C11.7959 9.01444 11.6437 9.13301 11.467 9.19914L11.4671 9.19959L8.47798 10.3159L7.38892 13.315L7.38847 13.315C7.32394 13.4923 7.20676 13.6456 7.0525 13.7542C6.89818 13.8628 6.71416 13.9215 6.52547 13.9224C6.33673 13.9232 6.15227 13.8662 5.99693 13.759C5.86096 13.6651 5.75273 13.5371 5.68355 13.388L5.65653 13.3229L4.53932 10.3338L1.54112 9.24476L1.54066 9.24431C1.36339 9.17976 1.21008 9.06261 1.10149 8.90834C1.00643 8.77323 0.949592 8.61532 0.93632 8.45151L0.933282 8.38131L0.935679 8.31062C0.947481 8.14679 1.00293 7.98867 1.09669 7.85277L1.13902 7.79595C1.24238 7.66832 1.37863 7.57023 1.53323 7.51236L4.5214 6.39516L5.61136 3.3965C5.67592 3.21916 5.79344 3.06593 5.94778 2.95733L6.00696 2.91901C6.14815 2.83501 6.30968 2.78987 6.47481 2.78912L6.54505 2.79152ZM5.32065 6.91342C5.27427 7.04109 5.17416 7.14212 5.04691 7.18967L1.86924 8.3766L5.05759 9.53501C5.18525 9.5814 5.28628 9.68153 5.33383 9.80875L6.52076 12.9864L7.67918 9.79808C7.72556 9.67041 7.82567 9.56939 7.95291 9.52184L11.1306 8.33446L7.94224 7.17649C7.81459 7.1301 7.71354 7.02998 7.666 6.90275L6.47862 3.72509L5.32065 6.91342Z" fill="var(--fill-0, #F8FAF9)"/>
<path id="Vector (Stroke)_2" d="M9.72614 3.70191L9.71348 0.918483C9.71231 0.662276 9.91906 0.453633 10.1753 0.452468C10.4315 0.451302 10.6401 0.658054 10.6413 0.914262L10.654 3.69769C10.6551 3.9539 10.4484 4.16254 10.1922 4.16371C9.93595 4.16487 9.72731 3.95812 9.72614 3.70191Z" fill="var(--fill-0, #F8FAF9)"/>
<path id="Vector (Stroke)_3" d="M12.5199 6.00879L12.5114 4.15317C12.5103 3.89696 12.717 3.68832 12.9732 3.68715C13.2294 3.68599 13.4381 3.89274 13.4392 4.14895L13.4477 6.00457C13.4489 6.26077 13.2421 6.46942 12.9859 6.47058C12.7297 6.47175 12.521 6.26499 12.5199 6.00879Z" fill="var(--fill-0, #F8FAF9)"/>
<path id="Vector (Stroke)_4" d="M11.5742 1.83788C11.8304 1.83671 12.0391 2.04346 12.0402 2.29967C12.0414 2.55588 11.8346 2.76452 11.5784 2.76568L8.79501 2.77835C8.5388 2.77952 8.33016 2.57276 8.329 2.31656C8.32783 2.06035 8.53458 1.85171 8.79079 1.85054L11.5742 1.83788Z" fill="var(--fill-0, #F8FAF9)"/>
<path id="Vector (Stroke)_5" d="M13.9065 4.61083C14.1627 4.60967 14.3713 4.81642 14.3725 5.07263C14.3736 5.32883 14.1669 5.53748 13.9107 5.53864L12.0551 5.54708C11.7989 5.54825 11.5902 5.3415 11.589 5.08529C11.5879 4.82908 11.7946 4.62044 12.0508 4.61927L13.9065 4.61083Z" fill="var(--fill-0, #F8FAF9)"/>
</g>
<defs>
<clipPath id="clip0_0_8">
<rect width="14.8451" height="14.8451" fill="white"/>
</clipPath>
</defs>
</svg>
