<svg preserveAspectRatio="none" width="100%" height="100%" overflow="visible" style="display: block;" viewBox="0 0 14.8451 14.8451" fill="none" xmlns="http://www.w3.org/2000/svg">
<g id="HouseSimple" clip-path="url(#clip0_0_15)">
<g id="Vector">
</g>
<path id="Vector (Stroke)" d="M7.42262 1.39129C7.54451 1.39129 7.6652 1.41531 7.7778 1.46197C7.89038 1.50863 7.99248 1.57737 8.07862 1.66357L12.7182 6.30221V6.30267C12.8043 6.38888 12.8728 6.49134 12.9193 6.60394C12.9658 6.71642 12.9896 6.83697 12.9895 6.95866V12.5256C12.9895 12.7818 12.7818 12.9895 12.5256 12.9895H2.31962C2.06344 12.9895 1.85575 12.7818 1.85571 12.5256V6.95866C1.85565 6.83697 1.87946 6.71642 1.92593 6.60394C1.97248 6.49134 2.04098 6.38888 2.12708 6.30267V6.30221L6.76617 1.66312C6.85232 1.57692 6.95487 1.50863 7.06744 1.46197C7.18004 1.41531 7.30074 1.39129 7.42262 1.39129ZM2.78353 6.95821V12.0617H12.0617V6.95821L7.42262 2.31911L2.78353 6.95821Z" fill="var(--fill-0, #F8FAF9)"/>
</g>
<defs>
<clipPath id="clip0_0_15">
<rect width="14.8451" height="14.8451" fill="white"/>
</clipPath>
</defs>
</svg>
