<svg preserveAspectRatio="none" width="100%" height="100%" overflow="visible" style="display: block;" viewBox="0 0 14.8451 14.8451" fill="none" xmlns="http://www.w3.org/2000/svg">
<g id="ArrowFatLineUp" clip-path="url(#clip0_0_4)">
<g id="Vector">
</g>
<path id="Vector (Stroke)" d="M7.12995 1.03199C7.31216 0.883381 7.58076 0.893862 7.75061 1.06371L13.3175 6.63062C13.4502 6.7633 13.4899 6.96286 13.4181 7.13621C13.3463 7.30953 13.1771 7.42253 12.9895 7.42253H10.67V10.6699C10.67 10.9261 10.4623 11.1338 10.2061 11.1338H4.63915C4.38294 11.1338 4.17524 10.9261 4.17524 10.6699V7.42253H1.85569C1.66808 7.42253 1.49894 7.30953 1.42712 7.13621C1.35532 6.96286 1.39502 6.7633 1.52769 6.63062L7.09461 1.06371L7.12995 1.03199ZM2.9756 6.49471H4.63915C4.89536 6.49471 5.10306 6.70241 5.10306 6.95862V10.206H9.74216V6.95862C9.74216 6.70241 9.94986 6.49471 10.2061 6.49471H11.8696L7.42261 2.0477L2.9756 6.49471Z" fill="var(--fill-0, #F8FAF9)"/>
<path id="Vector (Stroke)_2" d="M10.2061 12.0617C10.4623 12.0617 10.67 12.2694 10.67 12.5256C10.67 12.7819 10.4623 12.9896 10.2061 12.9896H4.63917C4.38295 12.9896 4.17526 12.7819 4.17526 12.5256C4.17526 12.2694 4.38295 12.0617 4.63917 12.0617H10.2061Z" fill="var(--fill-0, #F8FAF9)"/>
</g>
<defs>
<clipPath id="clip0_0_4">
<rect width="14.8451" height="14.8451" fill="white"/>
</clipPath>
</defs>
</svg>
