<svg preserveAspectRatio="none" width="100%" height="100%" overflow="visible" style="display: block;" viewBox="0 0 42.5605 36.1241" fill="none" xmlns="http://www.w3.org/2000/svg">
<g id="Group 1">
<g id="Subtract" filter="url(#filter0_i_0_13)">
<path d="M21.2803 0C33.0328 0.000105144 42.5605 9.52768 42.5605 21.2803C42.5604 26.4673 40.7034 31.2197 37.619 34.9116C36.7259 35.9807 35.1089 35.8456 34.1079 34.8768C33.0082 33.8126 32.9098 31.9943 33.8408 30.7799C35.8729 28.1293 37.081 24.8139 37.0811 21.2158C37.081 12.5247 30.0358 5.47875 21.3447 5.47852C12.6534 5.47852 5.60752 12.5246 5.60742 21.2158C5.60747 24.4563 6.58714 27.4678 8.26627 29.9709C9.13235 31.2619 8.92005 33.1015 7.74267 34.1167C6.67096 35.0408 5.02474 35.0856 4.18133 33.9493C1.5543 30.41 0.000149045 26.0266 0 21.2803C0 9.52761 9.52761 0 21.2803 0Z" fill="var(--fill-0, #E1E1E1)"/>
</g>
<path id="Subtract_2" d="M21.2803 0C30.0067 7.80716e-05 37.5059 5.25285 40.7894 12.769C41.3599 14.0748 40.248 15.4551 38.8714 15.8234C37.5315 16.1819 36.0826 15.5189 35.47 14.2744C32.9053 9.06455 27.5442 5.47966 21.3447 5.47949C12.6535 5.47949 5.60765 12.5247 5.60742 21.2158C5.60747 22.8919 5.86974 24.5067 6.35547 26.0215C6.66748 26.9946 6.49875 28.0651 5.87305 28.873C4.62926 30.4789 2.04841 30.6217 1.33789 28.7188C0.473384 26.4033 0.000111577 23.8972 0 21.2803C0 9.52761 9.52761 0 21.2803 0Z" fill="var(--fill-0, #FFB21B)"/>
<path id="Subtract_3" d="M21.2803 0C29.3703 7.23782e-05 36.4059 4.51457 40.0054 11.1618C40.7342 12.5079 39.5932 14.0516 38.1175 14.4583C36.8612 14.8045 35.5202 14.2556 34.8503 13.1378C32.1011 8.55037 27.0822 5.47965 21.3447 5.47949C12.6535 5.47949 5.60765 12.5247 5.60742 21.2158C5.60754 24.9583 6.91468 28.3949 9.09668 31.0957C10.0674 32.2972 10.019 34.1399 8.95215 35.2568C7.96091 36.2944 6.31517 36.4723 5.3623 35.3994C2.02708 31.6431 0.000231014 26.6987 0 21.2803C0 9.52761 9.52761 0 21.2803 0Z" fill="var(--fill-0, #10575C)"/>
</g>
<defs>
<filter id="filter0_i_0_13" x="0" y="0" width="42.5605" height="48.5629" filterUnits="userSpaceOnUse" color-interpolation-filters="sRGB">
<feFlood flood-opacity="0" result="BackgroundImageFix"/>
<feBlend mode="normal" in="SourceGraphic" in2="BackgroundImageFix" result="shape"/>
<feColorMatrix in="SourceAlpha" type="matrix" values="0 0 0 0 0 0 0 0 0 0 0 0 0 0 0 0 0 0 127 0" result="hardAlpha"/>
<feMorphology radius="3.22579" operator="dilate" in="SourceAlpha" result="effect1_innerShadow_0_13"/>
<feOffset dy="12.9032"/>
<feGaussianBlur stdDeviation="12.9032"/>
<feComposite in2="hardAlpha" operator="arithmetic" k2="-1" k3="1"/>
<feColorMatrix type="matrix" values="0 0 0 0 0.0470588 0 0 0 0 0.0470588 0 0 0 0 0.0509804 0 0 0 0.1 0"/>
<feBlend mode="normal" in2="shape" result="effect1_innerShadow_0_13"/>
</filter>
</defs>
</svg>
