<svg preserveAspectRatio="none" width="100%" height="100%" overflow="visible" style="display: block;" viewBox="0 0 22 22" fill="none" xmlns="http://www.w3.org/2000/svg">
<g id="SVG">
<path id="Vector" d="M11 2L20 11L11 20L2 11L11 2Z" stroke="#C2C3C3" stroke-width="1.6" stroke-linejoin="round"/>
<path id="Vector_2" d="M11 12.5C11.8284 12.5 12.5 11.8284 12.5 11C12.5 10.1716 11.8284 9.5 11 9.5C10.1716 9.5 9.5 10.1716 9.5 11C9.5 11.8284 10.1716 12.5 11 12.5Z" fill="#C2C3C3"/>
<path id="Vector_3" d="M8 11.9C8.49706 11.9 8.9 11.4971 8.9 11C8.9 10.5029 8.49706 10.1 8 10.1C7.50294 10.1 7.1 10.5029 7.1 11C7.1 11.4971 7.50294 11.9 8 11.9Z" fill="#C2C3C3"/>
<path id="Vector_4" d="M14 11.9C14.4971 11.9 14.9 11.4971 14.9 11C14.9 10.5029 14.4971 10.1 14 10.1C13.5029 10.1 13.1 10.5029 13.1 11C13.1 11.4971 13.5029 11.9 14 11.9Z" fill="#C2C3C3"/>
<path id="Vector_5" d="M11 8.9C11.4971 8.9 11.9 8.49706 11.9 8C11.9 7.50294 11.4971 7.1 11 7.1C10.5029 7.1 10.1 7.50294 10.1 8C10.1 8.49706 10.5029 8.9 11 8.9Z" fill="#C2C3C3"/>
<path id="Vector_6" d="M11 14.9C11.4971 14.9 11.9 14.4971 11.9 14C11.9 13.5029 11.4971 13.1 11 13.1C10.5029 13.1 10.1 13.5029 10.1 14C10.1 14.4971 10.5029 14.9 11 14.9Z" fill="#C2C3C3"/>
</g>
</svg>
