<svg preserveAspectRatio="none" width="100%" height="100%" overflow="visible" style="display: block;" viewBox="0 0 22 22" fill="none" xmlns="http://www.w3.org/2000/svg">
<g id="SVG">
<path id="Vector" d="M5 13.5C6.38071 13.5 7.5 12.3807 7.5 11C7.5 9.61929 6.38071 8.5 5 8.5C3.61929 8.5 2.5 9.61929 2.5 11C2.5 12.3807 3.61929 13.5 5 13.5Z" stroke="#C2C3C3" stroke-width="1.5"/>
<path id="Vector_2" d="M17 13.5C18.3807 13.5 19.5 12.3807 19.5 11C19.5 9.61929 18.3807 8.5 17 8.5C15.6193 8.5 14.5 9.61929 14.5 11C14.5 12.3807 15.6193 13.5 17 13.5Z" stroke="#C2C3C3" stroke-width="1.5"/>
<path id="Vector_3" d="M11 6C12.1046 6 13 5.10457 13 4C13 2.89543 12.1046 2 11 2C9.89543 2 9 2.89543 9 4C9 5.10457 9.89543 6 11 6Z" stroke="#C2C3C3" stroke-width="1.4"/>
<path id="Vector_4" d="M11 20C12.1046 20 13 19.1046 13 18C13 16.8954 12.1046 16 11 16C9.89543 16 9 16.8954 9 18C9 19.1046 9.89543 20 11 20Z" stroke="#C2C3C3" stroke-width="1.4"/>
<path id="Vector_5" d="M7.4 10.2L9.1 5.8" stroke="#C2C3C3" stroke-width="1.2" stroke-linecap="round"/>
<path id="Vector_6" d="M14.6 10.2L12.9 5.8" stroke="#C2C3C3" stroke-width="1.2" stroke-linecap="round"/>
<path id="Vector_7" d="M7.4 11.8L9.1 16.2" stroke="#C2C3C3" stroke-width="1.2" stroke-linecap="round"/>
<path id="Vector_8" d="M14.6 11.8L12.9 16.2" stroke="#C2C3C3" stroke-width="1.2" stroke-linecap="round"/>
<path id="Vector_9" d="M7.5 11H14.5" stroke="#C2C3C3" stroke-width="1.2" stroke-linecap="round"/>
</g>
</svg>
