<svg preserveAspectRatio="none" width="100%" height="100%" overflow="visible" style="display: block;" viewBox="0 0 302.976 85.3123" fill="none" xmlns="http://www.w3.org/2000/svg">
<g id="Line 2">
<path id="Line" d="M3.59766 81.7287L38.951 58.9767L76.0745 53.0414L110.265 70.6L149.713 22.623L185.343 3.58057L223.462 23.9447L264.071 6.72683L299.858 40.9465" stroke="var(--stroke-0, white)" stroke-linecap="square" stroke-linejoin="round"/>
<path id="Flow Indicator" d="M3.28516 78.6509C4.87862 78.651 6.07031 80.0896 6.07031 81.732C6.07014 83.3743 4.8785 84.812 3.28516 84.8121C1.69171 84.8121 0.500168 83.3743 0.5 81.732C0.5 80.0895 1.6916 78.6509 3.28516 78.6509Z" fill="var(--fill-0, white)" stroke="var(--stroke-0, #C2C3C3)" stroke-linecap="square"/>
<path id="Flow Indicator_2" d="M38.9482 56.2212C40.5417 56.2213 41.7334 57.6598 41.7334 59.3022C41.7332 60.9445 40.5416 62.3822 38.9482 62.3823C37.3548 62.3823 36.1633 60.9446 36.1631 59.3022C36.1631 57.6597 37.3547 56.2212 38.9482 56.2212Z" fill="var(--fill-0, white)" stroke="var(--stroke-0, #C2C3C3)" stroke-linecap="square"/>
<path id="Flow Indicator_3" d="M76.084 50.2744C77.6774 50.2745 78.8691 51.713 78.8691 53.3555C78.869 54.9977 77.6773 56.4354 76.084 56.4355C74.4905 56.4355 73.299 54.9978 73.2988 53.3555C73.2988 51.713 74.4904 50.2744 76.084 50.2744Z" fill="var(--fill-0, white)" stroke="var(--stroke-0, #C2C3C3)" stroke-linecap="square"/>
<path id="Flow Indicator_4" d="M110.12 67.2121C111.714 67.2123 112.905 68.6508 112.905 70.2932C112.905 71.9355 111.713 73.3732 110.12 73.3733C108.527 73.3733 107.335 71.9355 107.335 70.2932C107.335 68.6507 108.527 67.2121 110.12 67.2121Z" fill="var(--fill-0, white)" stroke="var(--stroke-0, #C2C3C3)" stroke-linecap="square"/>
<path id="Flow Indicator_5" d="M149.534 19.8781C151.128 19.8782 152.319 21.3168 152.319 22.9592C152.319 24.6015 151.128 26.0391 149.534 26.0393C147.941 26.0393 146.749 24.6015 146.749 22.9592C146.749 21.3167 147.941 19.8781 149.534 19.8781Z" fill="var(--fill-0, white)" stroke="var(--stroke-0, #C2C3C3)" stroke-linecap="square"/>
<path id="Flow Indicator_6" d="M185.197 0.5C186.791 0.500115 187.982 1.93863 187.982 3.58105C187.982 5.22334 186.791 6.66102 185.197 6.66113C183.604 6.66113 182.412 5.2234 182.412 3.58105C182.412 1.93856 183.604 0.5 185.197 0.5Z" fill="var(--fill-0, white)" stroke="var(--stroke-0, #C2C3C3)" stroke-linecap="square"/>
<path id="Flow Indicator_7" d="M223.471 20.27C225.064 20.2701 226.256 21.7086 226.256 23.3511C226.256 24.9934 225.064 26.431 223.471 26.4312C221.877 26.4312 220.686 24.9934 220.686 23.3511C220.686 21.7086 221.877 20.27 223.471 20.27Z" fill="var(--fill-0, white)" stroke="var(--stroke-0, #C2C3C3)" stroke-linecap="square"/>
<path id="Flow Indicator_8" d="M263.865 4.09033C265.459 4.09045 266.65 5.52896 266.65 7.17139C266.65 8.81367 265.459 10.2513 263.865 10.2515C262.272 10.2515 261.08 8.81373 261.08 7.17139C261.08 5.5289 262.272 4.09033 263.865 4.09033Z" fill="var(--fill-0, white)" stroke="var(--stroke-0, #C2C3C3)" stroke-linecap="square"/>
<path id="Flow Indicator_9" d="M299.691 37.6104C301.285 37.6105 302.477 39.049 302.477 40.6914C302.476 42.3337 301.285 43.7714 299.691 43.7715C298.098 43.7715 296.906 42.3338 296.906 40.6914C296.906 39.049 298.098 37.6104 299.691 37.6104Z" fill="var(--fill-0, white)" stroke="var(--stroke-0, #C2C3C3)" stroke-linecap="square"/>
</g>
</svg>
