<svg preserveAspectRatio="none" width="100%" height="100%" overflow="visible" style="display: block;" viewBox="0 0 303.033 78.9202" fill="none" xmlns="http://www.w3.org/2000/svg">
<g id="Line 1">
<path id="Line" d="M2.97461 50.0032L38.7401 30.6122L75.9834 44.6613L118.307 23.2725L149.402 3.58426L185.128 53.503L223.519 75.6993L264.198 48.069L299.912 5.92575" stroke="var(--stroke-0, #E1E1E1)" stroke-linecap="square" stroke-linejoin="round"/>
<path id="Flow Indicator" d="M38.6807 27.9152C40.2756 27.9154 41.4678 29.355 41.4678 30.9991C41.4677 32.6432 40.2756 34.0829 38.6807 34.0831C37.0856 34.0831 35.8926 32.6433 35.8926 30.9991C35.8926 29.3549 37.0856 27.9152 38.6807 27.9152Z" fill="var(--fill-0, white)" stroke="var(--stroke-0, #E1E1E1)" stroke-linecap="square"/>
<path id="Flow Indicator_2" d="M3.28809 46.7179C4.88303 46.718 6.0752 48.1577 6.0752 49.8018C6.07514 51.4459 4.88299 52.8856 3.28809 52.8858C1.69302 52.8858 0.500054 51.446 0.5 49.8018C0.5 48.1576 1.69298 46.7179 3.28809 46.7179Z" fill="var(--fill-0, white)" stroke="var(--stroke-0, #E1E1E1)" stroke-linecap="square"/>
<path id="Flow Indicator_3" d="M75.8623 41.5503C77.4572 41.5505 78.6494 42.9901 78.6494 44.6343C78.6494 46.2784 77.4572 47.7181 75.8623 47.7183C74.2672 47.7183 73.0743 46.2785 73.0742 44.6343C73.0742 42.99 74.2672 41.5503 75.8623 41.5503Z" fill="var(--fill-0, white)" stroke="var(--stroke-0, #E1E1E1)" stroke-linecap="square"/>
<path id="Flow Indicator_4" d="M149.403 0.5C150.998 0.500192 152.19 1.93985 152.19 3.58398C152.19 5.22807 150.998 6.66778 149.403 6.66797C147.808 6.66797 146.615 5.22818 146.615 3.58398C146.615 1.93975 147.808 0.5 149.403 0.5Z" fill="var(--fill-0, white)" stroke="var(--stroke-0, #E1E1E1)" stroke-linecap="square"/>
<path id="Flow Indicator_5" d="M185.109 50.4288C186.704 50.4289 187.896 51.8686 187.896 53.5127C187.896 55.1568 186.704 56.5965 185.109 56.5967C183.514 56.5967 182.321 55.1569 182.321 53.5127C182.321 51.8685 183.514 50.4288 185.109 50.4288Z" fill="var(--fill-0, white)" stroke="var(--stroke-0, #E1E1E1)" stroke-linecap="square"/>
<path id="Flow Indicator_6" d="M223.43 72.2524C225.025 72.2526 226.217 73.6923 226.217 75.3364C226.217 76.9805 225.025 78.4202 223.43 78.4204C221.835 78.4204 220.642 76.9806 220.642 75.3364C220.642 73.6922 221.835 72.2524 223.43 72.2524Z" fill="var(--fill-0, white)" stroke="var(--stroke-0, #E1E1E1)" stroke-linecap="square"/>
<path id="Flow Indicator_7" d="M263.875 44.941C265.47 44.9412 266.662 46.3808 266.662 48.025C266.662 49.6691 265.47 51.1088 263.875 51.109C262.28 51.109 261.087 49.6692 261.087 48.025C261.087 46.3807 262.28 44.941 263.875 44.941Z" fill="var(--fill-0, white)" stroke="var(--stroke-0, #E1E1E1)" stroke-linecap="square"/>
<path id="Flow Indicator_8" d="M299.745 3.08447C301.34 3.08466 302.532 4.52433 302.532 6.16846C302.532 7.81254 301.34 9.25225 299.745 9.25244C298.15 9.25244 296.957 7.81265 296.957 6.16846C296.957 4.52422 298.15 3.08447 299.745 3.08447Z" fill="var(--fill-0, white)" stroke="var(--stroke-0, #E1E1E1)" stroke-linecap="square"/>
</g>
</svg>
