<svg preserveAspectRatio="xMidYMin meet" width="100%" height="100%" overflow="visible" style="display: block;" viewBox="0 0 103.38 103.38" fill="none" xmlns="http://www.w3.org/2000/svg">
<g id="Sections">
<g id="Section 1">
<mask id="path-1-inside-1_0_12" fill="white">
<path d="M1.3444 51.6616C1.3444 43.9341 3.15536 36.3142 6.63202 29.413C10.1087 22.5118 15.1543 16.5215 21.3641 11.9224L34.1042 29.1245C30.5825 31.7328 27.721 35.13 25.7493 39.0439C23.7776 42.9577 22.7505 47.2791 22.7505 51.6616L1.3444 51.6616Z"/>
</mask>
<path d="M1.3444 51.6616C1.3444 43.9341 3.15536 36.3142 6.63202 29.413C10.1087 22.5118 15.1543 16.5215 21.3641 11.9224L34.1042 29.1245C30.5825 31.7328 27.721 35.13 25.7493 39.0439C23.7776 42.9577 22.7505 47.2791 22.7505 51.6616L1.3444 51.6616Z" fill="var(--fill-0, #D9D9D9)" fill-opacity="0.7" stroke="var(--stroke-0, #FBFBFB)" stroke-width="80" mask="url(#path-1-inside-1_0_12)"/>
</g>
<g id="Section 2">
<mask id="path-2-inside-2_0_12" fill="white">
<path d="M22.2687 11.1616C30.0865 5.53256 39.3781 2.3095 49.0024 1.88835C58.6266 1.46721 68.1643 3.86632 76.4438 8.79099L65.5009 27.1887C60.8054 24.3958 55.3963 23.0352 49.9382 23.274C44.48 23.5129 39.2105 25.3407 34.7769 28.5331L22.2687 11.1616Z"/>
</mask>
<path d="M22.2687 11.1616C30.0865 5.53256 39.3781 2.3095 49.0024 1.88835C58.6266 1.46721 68.1643 3.86632 76.4438 8.79099L65.5009 27.1887C60.8054 24.3958 55.3963 23.0352 49.9382 23.274C44.48 23.5129 39.2105 25.3407 34.7769 28.5331L22.2687 11.1616Z" fill="var(--fill-0, #D9D9D9)" fill-opacity="0.7" stroke="var(--stroke-0, #FBFBFB)" stroke-width="80" mask="url(#path-2-inside-2_0_12)"/>
</g>
<g id="Section 3">
<mask id="path-3-inside-3_0_12" fill="white">
<path d="M77.125 9.28174C83.0171 12.8157 88.1083 17.5386 92.0737 23.1495L74.5926 35.504C72.3437 32.322 69.4564 29.6434 66.1148 27.6393L77.125 9.28174Z"/>
</mask>
<path d="M77.125 9.28174C83.0171 12.8157 88.1083 17.5386 92.0737 23.1495L74.5926 35.504C72.3437 32.322 69.4564 29.6434 66.1148 27.6393L77.125 9.28174Z" fill="var(--fill-0, #D9D9D9)" fill-opacity="0.7" stroke="var(--stroke-0, white)" stroke-width="80" mask="url(#path-3-inside-3_0_12)"/>
</g>
<g id="Section 4">
<mask id="path-4-inside-4_0_12" fill="white">
<path d="M92.6456 24.0926C98.1756 32.1381 101.2 41.6404 101.339 51.4021L79.9351 51.7059C79.8565 46.1698 78.141 40.7808 75.0048 36.2181L92.6456 24.0926Z"/>
</mask>
<path d="M92.6456 24.0926C98.1756 32.1381 101.2 41.6404 101.339 51.4021L79.9351 51.7059C79.8565 46.1698 78.141 40.7808 75.0048 36.2181L92.6456 24.0926Z" fill="var(--fill-0, #D9D9D9)" fill-opacity="0.7" stroke="var(--stroke-0, #FBFBFB)" stroke-width="80" mask="url(#path-4-inside-4_0_12)"/>
</g>
</g>
</svg>
