<svg width="24" height="24" viewBox="0 0 24 24" fill="none" xmlns="http://www.w3.org/2000/svg">
<g clip-path="url(#clip0_152_562)">
<path d="M13.5 13.5L11.25 15.75" stroke="#10575C" stroke-width="2" stroke-linecap="round" stroke-linejoin="round"/>
<path d="M10.5 10.5L8.25 12.75" stroke="#10575C" stroke-width="2" stroke-linecap="round" stroke-linejoin="round"/>
<path d="M6 10.5L13.5 18" stroke="#10575C" stroke-width="2" stroke-linecap="round" stroke-linejoin="round"/>
<path d="M5.44313 18.5566L2.25 21.7498" stroke="#10575C" stroke-width="2" stroke-linecap="round" stroke-linejoin="round"/>
<path d="M12.3743 16.875L9.6556 19.5938C9.23365 20.0157 8.66137 20.2527 8.06466 20.2527C7.46795 20.2527 6.89568 20.0157 6.47372 19.5938L4.4056 17.5228C3.98453 17.101 3.74805 16.5293 3.74805 15.9333C3.74805 15.3373 3.98453 14.7656 4.4056 14.3438L7.12435 11.625" stroke="#10575C" stroke-width="2" stroke-linecap="round" stroke-linejoin="round"/>
<path d="M10.5 6L18 13.5" stroke="#10575C" stroke-width="2" stroke-linecap="round" stroke-linejoin="round"/>
<path d="M18.5566 5.44313L21.7498 2.25" stroke="#10575C" stroke-width="2" stroke-linecap="round" stroke-linejoin="round"/>
<path d="M16.875 12.3748L19.5938 9.65609C20.0157 9.23413 20.2527 8.66186 20.2527 8.06515C20.2527 7.46844 20.0157 6.89616 19.5938 6.47421L17.5228 4.40609C17.101 3.98502 16.5293 3.74854 15.9333 3.74854C15.3373 3.74854 14.7656 3.98502 14.3438 4.40609L11.625 7.12484" stroke="#10575C" stroke-width="2" stroke-linecap="round" stroke-linejoin="round"/>
</g>
<defs>
<clipPath id="clip0_152_562">
<rect width="24" height="24" fill="white"/>
</clipPath>
</defs>
</svg>
