<svg width="13" height="13" viewBox="0 0 13 13" fill="none" xmlns="http://www.w3.org/2000/svg">
<path d="M0 12.6234L0.93 12.0122C1.033 11.9441 1.1176 11.8517 1.17632 11.7431C1.23503 11.6345 1.26603 11.5131 1.26656 11.3897L1.28625 7.99312C1.28727 7.84593 1.33125 7.70223 1.41281 7.57969L3.37594 4.64531C3.43224 4.56175 3.50479 4.49039 3.58928 4.43549C3.67377 4.38058 3.76845 4.34327 3.86768 4.32577C3.9669 4.30827 4.06864 4.31094 4.16681 4.33363C4.26498 4.35632 4.35757 4.39855 4.43906 4.45781L6.29625 5.67656C6.45263 5.7892 6.64614 5.83783 6.83719 5.8125L9.78656 5.41312C9.96866 5.38871 10.1355 5.2983 10.2553 5.15906L12.3347 2.7375C12.4515 2.60191 12.5161 2.429 12.5166 2.25V0" stroke="#10575C" stroke-width="2" stroke-linecap="round" stroke-linejoin="round"/>
</svg>
