<svg width="14" height="13" viewBox="0 0 14 13" fill="none" xmlns="http://www.w3.org/2000/svg">
<path d="M9.57959 3.49902C9.40827 3.49899 9.24887 3.41134 9.15723 3.2666C9.06558 3.12178 9.05457 2.94005 9.12793 2.78516C9.21817 2.59463 9.25844 2.38425 9.24561 2.17383C9.23276 1.96342 9.16692 1.75967 9.0542 1.58154C8.94147 1.40344 8.78572 1.25645 8.60107 1.15479C8.41641 1.05312 8.20885 1 7.99805 1C7.78726 1.00001 7.57967 1.05312 7.39502 1.15479C7.21039 1.25646 7.05461 1.40344 6.94189 1.58154C6.82917 1.75967 6.76333 1.96342 6.75049 2.17383C6.73765 2.38425 6.77841 2.59463 6.86865 2.78516C6.94194 2.94002 6.93049 3.12182 6.83887 3.2666C6.74719 3.41133 6.58783 3.49902 6.4165 3.49902H3.49854V6.16699C3.49854 6.33832 3.41085 6.49817 3.26611 6.58984C3.12134 6.6815 2.93956 6.69241 2.78467 6.61914C2.59414 6.529 2.38372 6.48856 2.17334 6.50146C1.9631 6.51438 1.75953 6.58023 1.58154 6.69287C1.40346 6.80562 1.25642 6.96184 1.15479 7.14648C1.05322 7.33106 1.00001 7.53835 1 7.74902C1 7.95979 1.05315 8.1674 1.15479 8.35205C1.25642 8.53667 1.40349 8.69244 1.58154 8.80518C1.75955 8.91785 1.96307 8.98366 2.17334 8.99658C2.38372 9.00948 2.59414 8.96905 2.78467 8.87891C2.93954 8.80567 3.12136 8.81704 3.26611 8.90869C3.41077 9.00038 3.49854 9.15978 3.49854 9.33105V11.999H12.4985V9.98438C12.3707 9.99859 12.2416 10.003 12.1123 9.99512C11.7336 9.97189 11.3669 9.85285 11.0464 9.6499C10.7259 9.44696 10.4617 9.16632 10.2788 8.83398C10.0959 8.50165 10 8.12837 10 7.74902C10 7.36966 10.0959 6.9964 10.2788 6.66406C10.4618 6.33171 10.7259 6.05109 11.0464 5.84814C11.3669 5.6452 11.7336 5.52664 12.1123 5.50342C12.2416 5.49549 12.3707 5.49946 12.4985 5.51367V3.49902H9.57959ZM13.4985 6.16699C13.4985 6.33832 13.4109 6.49817 13.2661 6.58984C13.1213 6.6815 12.9396 6.69241 12.7847 6.61914C12.5941 6.529 12.3837 6.48856 12.1733 6.50146C11.9631 6.51438 11.7595 6.58023 11.5815 6.69287C11.4035 6.80562 11.2564 6.96184 11.1548 7.14648C11.0532 7.33106 11 7.53835 11 7.74902C11 7.95979 11.0531 8.1674 11.1548 8.35205C11.2564 8.53667 11.4035 8.69244 11.5815 8.80518C11.7595 8.91785 11.9631 8.98366 12.1733 8.99658C12.3837 9.00948 12.5941 8.96905 12.7847 8.87891C12.9395 8.80567 13.1214 8.81704 13.2661 8.90869C13.4108 9.00038 13.4985 9.15978 13.4985 9.33105V11.999C13.4985 12.2642 13.393 12.5185 13.2056 12.7061C13.018 12.8936 12.7637 12.999 12.4985 12.999H3.49854C3.23332 12.999 2.97904 12.8936 2.7915 12.7061C2.60397 12.5185 2.49854 12.2642 2.49854 11.999V9.98438C2.37073 9.99859 2.24158 10.003 2.1123 9.99512C1.73363 9.97189 1.36693 9.85285 1.04639 9.6499C0.725888 9.44696 0.461737 9.16632 0.278809 8.83398C0.0959012 8.50165 0 8.12837 0 7.74902C1.39856e-05 7.36966 0.0958748 6.9964 0.278809 6.66406C0.461751 6.33171 0.725859 6.05109 1.04639 5.84814C1.36693 5.6452 1.73363 5.52664 2.1123 5.50342C2.24158 5.49549 2.37073 5.49946 2.49854 5.51367V3.49902C2.49856 3.23384 2.60399 2.97951 2.7915 2.79199C2.97903 2.60451 3.23336 2.49902 3.49854 2.49902H5.7627C5.74846 2.37128 5.74456 2.24201 5.75244 2.11279C5.77558 1.73415 5.89385 1.36744 6.09668 1.04688C6.2996 0.726223 6.58067 0.461829 6.91309 0.278809C7.24543 0.0958693 7.61868 1.45485e-05 7.99805 0C8.37752 0 8.75108 0.0957885 9.0835 0.278809C9.41589 0.461827 9.6965 0.72624 9.89941 1.04688C10.1023 1.36746 10.221 1.73412 10.2441 2.11279C10.252 2.24201 10.2476 2.37127 10.2334 2.49902H12.4985C12.7637 2.49905 13.0181 2.60448 13.2056 2.79199C13.3931 2.97951 13.4985 3.23384 13.4985 3.49902V6.16699Z" fill="#10575C"/>
</svg>
