<svg width="9" height="11" viewBox="0 0 9 11" fill="none" xmlns="http://www.w3.org/2000/svg">
<path d="M0 2.5V1C0 0.734783 0.105433 0.480505 0.292969 0.292969C0.480505 0.105433 0.734783 0 1 0H6C6.13261 0 6.25975 0.0527162 6.35352 0.146484L8.85352 2.64648C8.94728 2.74025 9 2.86739 9 3V10C9 10.2652 8.89457 10.5195 8.70703 10.707C8.51949 10.8946 8.26521 11 8 11H6.5C6.22386 11 6 10.7761 6 10.5C6 10.2239 6.22386 10 6.5 10H8V3.20703L5.79297 1H1V2.5C1 2.77614 0.776142 3 0.5 3C0.223858 3 0 2.77614 0 2.5Z" fill="#10575C"/>
</svg>
