<svg width="12" height="11" viewBox="0 0 12 11" fill="none" xmlns="http://www.w3.org/2000/svg">
<path d="M9.99707 5C9.99707 3.93913 9.57534 2.92153 8.8252 2.17139C8.07509 1.42139 7.05781 1.00002 5.99707 1C4.93622 1 3.9186 1.42127 3.16846 2.17139C2.41831 2.92153 1.99707 3.93913 1.99707 5C1.99707 7.1763 1.52318 8.53086 1.08643 9.34473L1 9.5H10.9951C10.5363 8.70727 9.99707 7.32142 9.99707 5ZM10.9971 5C10.9971 7.02084 11.4347 8.21198 11.791 8.87402L11.8608 8.99951L11.8613 9C11.9489 9.15172 11.9949 9.32383 11.9951 9.49902C11.9953 9.67425 11.9496 9.84663 11.8623 9.99854C11.775 10.1504 11.6491 10.2767 11.4976 10.3647C11.346 10.4528 11.1738 10.4994 10.9985 10.5H0.994142C0.819118 10.4989 0.647278 10.452 0.496095 10.3638C0.344932 10.2756 0.21938 10.1494 0.132325 9.99756C0.0452764 9.84573 -0.000256803 9.67355 1.08942e-06 9.49854C0.000266962 9.32354 0.0463065 9.15156 0.13379 9H0.134278C0.49986 8.36758 0.997071 7.15502 0.997071 5C0.997071 3.67392 1.52375 2.40204 2.46143 1.46436C3.39911 0.526698 4.67101 0 5.99707 0C7.32313 2.05838e-05 8.59505 0.526692 9.53272 1.46436C10.4704 2.40203 10.9971 3.67394 10.9971 5Z" fill="#1DB880"/>
</svg>
