<svg width="16" height="20" viewBox="0 0 16 20" fill="none" xmlns="http://www.w3.org/2000/svg">
<path d="M5 11H11M5 15H8M0 2V18C0 18.5304 0.210714 19.0391 0.585786 19.4142C0.960859 19.7893 1.46957 20 2 20H14C14.5304 20 15.0391 19.7893 15.4142 19.4142C15.7893 19.0391 16 18.5304 16 18V6.342C16 6.07556 15.9467 5.81181 15.8433 5.56624C15.7399 5.32068 15.5885 5.09824 15.398 4.912L10.958 0.57C10.5844 0.204658 10.0826 6.50394e-05 9.56 0H2C1.46957 0 0.960859 0.210714 0.585786 0.585786C0.210714 0.960859 0 1.46957 0 2Z" stroke="#3FA08D" stroke-width="2" stroke-linecap="round" stroke-linejoin="round"/>
</svg>
