<svg preserveAspectRatio="xMidYMid meet" width="16" height="16" viewBox="0 0 16 16" fill="none" xmlns="http://www.w3.org/2000/svg">
<g id="Bank" clip-path="url(#clip0_0_50)">
<g id="Vector">
</g>
<path id="Vector (Stroke)" d="M7.73779 1.57422C7.8985 1.47532 8.1015 1.47532 8.26221 1.57422L14.7622 5.57422C14.9526 5.69148 15.0419 5.92104 14.981 6.13623C14.92 6.35142 14.7237 6.5 14.5 6.5H1.5C1.27633 6.5 1.08 6.35142 1.01904 6.13623C0.958135 5.92104 1.04737 5.69148 1.23779 5.57422L7.73779 1.57422ZM3.2666 5.5H12.7334L8 2.58691L3.2666 5.5Z" fill="#10575C"/>
<path id="Vector (Stroke)_2" d="M3 11V6C3 5.72386 3.22386 5.5 3.5 5.5C3.77614 5.5 4 5.72386 4 6V11C4 11.2761 3.77614 11.5 3.5 11.5C3.22386 11.5 3 11.2761 3 11Z" fill="#10575C"/>
<path id="Vector (Stroke)_3" d="M6 11V6C6 5.72386 6.22386 5.5 6.5 5.5C6.77614 5.5 7 5.72386 7 6V11C7 11.2761 6.77614 11.5 6.5 11.5C6.22386 11.5 6 11.2761 6 11Z" fill="#10575C"/>
<path id="Vector (Stroke)_4" d="M9 11V6C9 5.72386 9.22386 5.5 9.5 5.5C9.77614 5.5 10 5.72386 10 6V11C10 11.2761 9.77614 11.5 9.5 11.5C9.22386 11.5 9 11.2761 9 11Z" fill="#10575C"/>
<path id="Vector (Stroke)_5" d="M12 11V6C12 5.72386 12.2239 5.5 12.5 5.5C12.7761 5.5 13 5.72386 13 6V11C13 11.2761 12.7761 11.5 12.5 11.5C12.2239 11.5 12 11.2761 12 11Z" fill="#10575C"/>
<path id="Vector (Stroke)_6" d="M14 10.5C14.2761 10.5 14.5 10.7239 14.5 11C14.5 11.2761 14.2761 11.5 14 11.5H2C1.72386 11.5 1.5 11.2761 1.5 11C1.5 10.7239 1.72386 10.5 2 10.5H14Z" fill="#10575C"/>
<path id="Vector (Stroke)_7" d="M15 12.5C15.2761 12.5 15.5 12.7239 15.5 13C15.5 13.2761 15.2761 13.5 15 13.5H1C0.723858 13.5 0.5 13.2761 0.5 13C0.5 12.7239 0.723858 12.5 1 12.5H15Z" fill="#10575C"/>
</g>
<defs>
<clipPath id="clip0_0_50">
<rect width="16" height="16" fill="white"/>
</clipPath>
</defs>
</svg>
