<svg preserveAspectRatio="xMidYMid meet" width="16" height="16" viewBox="0 0 16 16" fill="none" xmlns="http://www.w3.org/2000/svg">
<g id="BellRinging" clip-path="url(#clip0_0_38)">
<g id="Vector">
</g>
<path id="Vector (Stroke)" d="M5.5 12C5.5 11.7239 5.72386 11.5 6 11.5C6.27614 11.5 6.5 11.7239 6.5 12C6.5 12.3978 6.65815 12.7792 6.93945 13.0605C7.22076 13.3419 7.60218 13.5 8 13.5C8.39782 13.5 8.77924 13.3419 9.06055 13.0605C9.34185 12.7792 9.5 12.3978 9.5 12C9.5 11.7239 9.72386 11.5 10 11.5C10.2761 11.5 10.5 11.7239 10.5 12C10.5 12.663 10.2364 13.2987 9.76758 13.7676C9.29874 14.2364 8.66304 14.5 8 14.5C7.33696 14.5 6.70126 14.2364 6.23242 13.7676C5.76358 13.2987 5.5 12.663 5.5 12Z" fill="#1DB880"/>
<path id="Vector (Stroke)_2" d="M11.0786 1.23096C11.2272 0.998263 11.5363 0.930102 11.769 1.07861C12.8097 1.74267 13.6539 2.67323 14.2139 3.77344C14.3389 4.01947 14.2411 4.32056 13.9951 4.4458C13.749 4.57105 13.448 4.47267 13.3228 4.22656C12.8437 3.28535 12.1213 2.48946 11.231 1.92139C10.9983 1.77282 10.9301 1.46371 11.0786 1.23096Z" fill="#1DB880"/>
<path id="Vector (Stroke)_3" d="M4.2309 1.07861C4.46364 0.930108 4.77276 0.998284 4.92133 1.23096C5.06985 1.46372 5.00171 1.77283 4.76898 1.92139C3.87874 2.48943 3.1567 3.28543 2.67768 4.22656C2.55247 4.47258 2.25137 4.57086 2.00531 4.4458C1.75929 4.3206 1.66102 4.0195 1.78607 3.77344C2.34599 2.67324 3.19024 1.74267 4.2309 1.07861Z" fill="#1DB880"/>
<path id="Vector (Stroke)_4" d="M12.0001 7C12.0001 5.93913 11.5783 4.92153 10.8282 4.17139C10.0781 3.42139 9.06082 3.00002 8.00008 3C6.93923 3 5.92161 3.42127 5.17146 4.17139C4.42132 4.92153 4.00008 5.93913 4.00008 7C4.00008 9.1763 3.52619 10.5309 3.08943 11.3447L3.00301 11.5H12.9981C12.5393 10.7073 12.0001 9.32142 12.0001 7ZM13.0001 7C13.0001 9.02084 13.4377 10.212 13.794 10.874L13.8638 10.9995L13.8643 11C13.9519 11.1517 13.998 11.3238 13.9981 11.499C13.9983 11.6743 13.9527 11.8466 13.8653 11.9985C13.778 12.1504 13.6521 12.2767 13.5006 12.3647C13.349 12.4528 13.1768 12.4994 13.0015 12.5H2.99715C2.82212 12.4989 2.65028 12.452 2.4991 12.3638C2.34794 12.2756 2.22239 12.1494 2.13533 11.9976C2.04828 11.8457 2.00275 11.6735 2.00301 11.4985C2.00327 11.3235 2.04931 11.1516 2.1368 11H2.13728C2.50287 10.3676 3.00008 9.15502 3.00008 7C3.00008 5.67392 3.52675 4.40204 4.46443 3.46436C5.40211 2.5267 6.67401 2 8.00008 2C9.32613 2.00002 10.5981 2.52669 11.5357 3.46436C12.4734 4.40203 13.0001 5.67394 13.0001 7Z" fill="#1DB880"/>
</g>
<defs>
<clipPath id="clip0_0_38">
<rect width="16" height="16" fill="white"/>
</clipPath>
</defs>
</svg>
