<svg preserveAspectRatio="xMidYMid meet" width="16" height="16" viewBox="0 0 16 16" fill="none" xmlns="http://www.w3.org/2000/svg">
<g id="CheckCircle" clip-path="url(#clip0_0_34)">
<g id="Vector">
</g>
<path id="Vector (Stroke)" d="M10.1465 6.14648C10.3417 5.95122 10.6583 5.95122 10.8535 6.14648C11.0488 6.34175 11.0488 6.65825 10.8535 6.85352L7.35352 10.3535C7.15825 10.5488 6.84175 10.5488 6.64648 10.3535L5.14648 8.85352C4.95122 8.65825 4.95122 8.34175 5.14648 8.14648C5.34175 7.95122 5.65825 7.95122 5.85352 8.14648L7 9.29297L10.1465 6.14648Z" fill="#D4AF6A"/>
<path id="Vector (Stroke)_2" d="M13.5 8C13.5 4.96243 11.0376 2.5 8 2.5C4.96243 2.5 2.5 4.96243 2.5 8C2.5 11.0376 4.96243 13.5 8 13.5C11.0376 13.5 13.5 11.0376 13.5 8ZM14.5 8C14.5 11.5899 11.5899 14.5 8 14.5C4.41015 14.5 1.5 11.5899 1.5 8C1.5 4.41015 4.41015 1.5 8 1.5C11.5899 1.5 14.5 4.41015 14.5 8Z" fill="#D4AF6A"/>
</g>
<defs>
<clipPath id="clip0_0_34">
<rect width="16" height="16" fill="white"/>
</clipPath>
</defs>
</svg>
