<svg preserveAspectRatio="xMidYMid meet" width="16" height="16" viewBox="0 0 16 16" fill="none" xmlns="http://www.w3.org/2000/svg">
<g id="FileText" clip-path="url(#clip0_0_66)">
<g id="Vector">
</g>
<path id="Vector (Stroke)" d="M2.5 13.5V2.5C2.5 2.23478 2.60543 1.9805 2.79297 1.79297C2.9805 1.60543 3.23478 1.5 3.5 1.5H9.5C9.63261 1.5 9.75975 1.55272 9.85352 1.64648L13.3535 5.14648C13.4473 5.24025 13.5 5.36739 13.5 5.5V13.5C13.5 13.7652 13.3946 14.0195 13.207 14.207C13.0195 14.3946 12.7652 14.5 12.5 14.5H3.5C3.23478 14.5 2.98051 14.3946 2.79297 14.207C2.60543 14.0195 2.5 13.7652 2.5 13.5ZM3.5 13.5H12.5V5.70703L9.29297 2.5H3.5V13.5Z" fill="#10575C"/>
<path id="Vector (Stroke)_2" d="M9 2C9 1.72386 9.22386 1.5 9.5 1.5C9.77614 1.5 10 1.72386 10 2V5H13C13.2761 5 13.5 5.22386 13.5 5.5C13.5 5.77614 13.2761 6 13 6H9.5C9.22386 6 9 5.77614 9 5.5V2Z" fill="#10575C"/>
<path id="Vector (Stroke)_3" d="M10 8C10.2761 8 10.5 8.22386 10.5 8.5C10.5 8.77614 10.2761 9 10 9H6C5.72386 9 5.5 8.77614 5.5 8.5C5.5 8.22386 5.72386 8 6 8H10Z" fill="#10575C"/>
<path id="Vector (Stroke)_4" d="M10 10C10.2761 10 10.5 10.2239 10.5 10.5C10.5 10.7761 10.2761 11 10 11H6C5.72386 11 5.5 10.7761 5.5 10.5C5.5 10.2239 5.72386 10 6 10H10Z" fill="#10575C"/>
</g>
<defs>
<clipPath id="clip0_0_66">
<rect width="16" height="16" fill="white"/>
</clipPath>
</defs>
</svg>
