<svg preserveAspectRatio="xMidYMid meet" width="16" height="16" viewBox="0 0 16 16" fill="none" xmlns="http://www.w3.org/2000/svg">
<g id="Files" clip-path="url(#clip0_0_44)">
<g id="Vector">
</g>
<path id="Vector (Stroke)" d="M2.5 13.5V4.5C2.5 4.23478 2.60543 3.9805 2.79297 3.79297C2.9805 3.60543 3.23478 3.5 3.5 3.5H8.5C8.63261 3.5 8.75975 3.55272 8.85352 3.64648L11.3535 6.14648C11.4473 6.24025 11.5 6.36739 11.5 6.5V13.5C11.5 13.7652 11.3946 14.0195 11.207 14.207C11.0195 14.3946 10.7652 14.5 10.5 14.5H3.5C3.23478 14.5 2.98051 14.3946 2.79297 14.207C2.60543 14.0195 2.5 13.7652 2.5 13.5ZM3.5 13.5H10.5V6.70703L8.29297 4.5H3.5V13.5Z" fill="#10575C"/>
<path id="Vector (Stroke)_2" d="M4.5 4V2.5C4.5 2.23478 4.60543 1.9805 4.79297 1.79297C4.9805 1.60543 5.23478 1.5 5.5 1.5H10.5C10.6326 1.5 10.7597 1.55272 10.8535 1.64648L13.3535 4.14648C13.4473 4.24025 13.5 4.36739 13.5 4.5V11.5C13.5 11.7652 13.3946 12.0195 13.207 12.207C13.0195 12.3946 12.7652 12.5 12.5 12.5H11C10.7239 12.5 10.5 12.2761 10.5 12C10.5 11.7239 10.7239 11.5 11 11.5H12.5V4.70703L10.293 2.5H5.5V4C5.5 4.27614 5.27614 4.5 5 4.5C4.72386 4.5 4.5 4.27614 4.5 4Z" fill="#10575C"/>
<path id="Vector (Stroke)_3" d="M8.5 9C8.77614 9 9 9.22386 9 9.5C9 9.77614 8.77614 10 8.5 10H5.5C5.22386 10 5 9.77614 5 9.5C5 9.22386 5.22386 9 5.5 9H8.5Z" fill="#10575C"/>
<path id="Vector (Stroke)_4" d="M8.5 11C8.77614 11 9 11.2239 9 11.5C9 11.7761 8.77614 12 8.5 12H5.5C5.22386 12 5 11.7761 5 11.5C5 11.2239 5.22386 11 5.5 11H8.5Z" fill="#10575C"/>
</g>
<defs>
<clipPath id="clip0_0_44">
<rect width="16" height="16" fill="white"/>
</clipPath>
</defs>
</svg>
