<svg preserveAspectRatio="xMidYMid meet" width="16" height="16" viewBox="0 0 16 16" fill="none" xmlns="http://www.w3.org/2000/svg">
<g id="Plug" clip-path="url(#clip0_0_59)">
<g id="Vector">
</g>
<path id="Vector (Stroke)" d="M11.1465 1.14648C11.3417 0.951222 11.6583 0.951222 11.8535 1.14648C12.0488 1.34175 12.0488 1.65825 11.8535 1.85352L9.35352 4.35352C9.15825 4.54878 8.84175 4.54878 8.64648 4.35352C8.45122 4.15825 8.45122 3.84175 8.64648 3.64648L11.1465 1.14648Z" fill="#FFC802"/>
<path id="Vector (Stroke)_2" d="M14.1465 4.14648C14.3417 3.95122 14.6583 3.95122 14.8535 4.14648C15.0488 4.34175 15.0488 4.65825 14.8535 4.85352L12.3535 7.35352C12.1583 7.54878 11.8417 7.54878 11.6465 7.35352C11.4512 7.15825 11.4512 6.84175 11.6465 6.64648L14.1465 4.14648Z" fill="#FFC802"/>
<path id="Vector (Stroke)_3" d="M6.64648 1.64648C6.84175 1.45122 7.15825 1.45122 7.35352 1.64648L14.3535 8.64648C14.5488 8.84175 14.5488 9.15825 14.3535 9.35352C14.1583 9.54878 13.8417 9.54878 13.6465 9.35352L6.64648 2.35352C6.45122 2.15825 6.45122 1.84175 6.64648 1.64648Z" fill="#FFC802"/>
<path id="Vector (Stroke)_4" d="M12.8965 7.89648C13.0917 7.70122 13.4082 7.70123 13.6035 7.89648C13.7988 8.09175 13.7988 8.40825 13.6035 8.60352L9.93895 12.2681C9.47014 12.7367 8.83426 13 8.17138 13C7.50849 13 6.87258 12.7367 6.4038 12.2681L3.73192 9.59619C3.26324 9.12741 3.00004 8.4915 2.99999 7.82861C2.99999 7.16573 3.26329 6.52985 3.73192 6.06104L7.39647 2.39648C7.59173 2.20122 7.90824 2.20123 8.10351 2.39648C8.29877 2.59175 8.29877 2.90825 8.10351 3.10352L4.43895 6.76758C4.15772 7.04887 3.99999 7.43084 3.99999 7.82861C4.00004 8.22632 4.15825 8.60791 4.43944 8.88916L7.11034 11.5605H7.11083C7.39208 11.8417 7.77367 12 8.17138 12C8.56915 12 8.95063 11.8418 9.23192 11.5605L12.8965 7.89648Z" fill="#FFC802"/>
<path id="Vector (Stroke)_5" d="M5.06836 10.2246C5.26362 10.0293 5.58013 10.0293 5.77539 10.2246C5.97065 10.4199 5.97065 10.7364 5.77539 10.9316L2.35352 14.3535C2.15825 14.5488 1.84175 14.5488 1.64648 14.3535C1.45122 14.1583 1.45122 13.8417 1.64648 13.6465L5.06836 10.2246Z" fill="#FFC802"/>
</g>
<defs>
<clipPath id="clip0_0_59">
<rect width="16" height="16" fill="white"/>
</clipPath>
</defs>
</svg>
