<svg viewBox="0 0 11 11" fill="none" xmlns="http://www.w3.org/2000/svg">
<g clip-path="url(#clip0)">
<path d="M5.5 4.125C5.8797 4.125 6.1875 3.8172 6.1875 3.4375C6.1875 3.0578 5.8797 2.75 5.5 2.75C5.1203 2.75 4.8125 3.0578 4.8125 3.4375C4.8125 3.8172 5.1203 4.125 5.5 4.125Z" fill="#3FA08D"/>
<path d="M7.90625 3.4375C7.90625 5.84375 5.5 7.21875 5.5 7.21875C5.5 7.21875 3.09375 5.84375 3.09375 3.4375C3.09375 2.79932 3.34727 2.18728 3.79852 1.73602C4.24978 1.28476 4.86182 1.03125 5.5 1.03125C6.13818 1.03125 6.75022 1.28476 7.20148 1.73602C7.65273 2.18728 7.90625 2.79932 7.90625 3.4375Z" stroke="#3FA08D" stroke-linecap="round" stroke-linejoin="round"/>
<path d="M8.59375 6.66617C9.44109 6.97898 9.96875 7.41898 9.96875 7.90625C9.96875 8.85543 7.96812 9.625 5.5 9.625C3.03188 9.625 1.03125 8.85543 1.03125 7.90625C1.03125 7.41898 1.55891 6.97898 2.40625 6.66617" stroke="#3FA08D" stroke-linecap="round" stroke-linejoin="round"/>
</g>
<defs>
<clipPath id="clip0">
<rect width="11" height="11" fill="white"/>
</clipPath>
</defs>
</svg>
