<svg viewBox="0 0 11 11" fill="none" xmlns="http://www.w3.org/2000/svg">
<g clip-path="url(#clip0)">
<path d="M5.5 9.96875V8.59375" stroke="#3FA08D" stroke-linecap="round" stroke-linejoin="round"/>
<path d="M5.5 9.28125C7.58833 9.28125 9.28125 7.58833 9.28125 5.5C9.28125 3.41167 7.58833 1.71875 5.5 1.71875C3.41167 1.71875 1.71875 3.41167 1.71875 5.5C1.71875 7.58833 3.41167 9.28125 5.5 9.28125Z" stroke="#3FA08D" stroke-linecap="round" stroke-linejoin="round"/>
<path d="M5.5 1.03125V2.40625" stroke="#3FA08D" stroke-linecap="round" stroke-linejoin="round"/>
<path d="M1.03125 5.5H2.40625" stroke="#3FA08D" stroke-linecap="round" stroke-linejoin="round"/>
<path d="M9.96875 5.5H8.59375" stroke="#3FA08D" stroke-linecap="round" stroke-linejoin="round"/>
<path d="M5.5 6.875C6.25939 6.875 6.875 6.25939 6.875 5.5C6.875 4.74061 6.25939 4.125 5.5 4.125C4.74061 4.125 4.125 4.74061 4.125 5.5C4.125 6.25939 4.74061 6.875 5.5 6.875Z" stroke="#3FA08D" stroke-linecap="round" stroke-linejoin="round"/>
</g>
<defs>
<clipPath id="clip0">
<rect width="11" height="11" fill="white"/>
</clipPath>
</defs>
</svg>
