<svg viewBox="0 0 6 7" fill="none" xmlns="http://www.w3.org/2000/svg">
<path d="M0 6.22222H6V7H0V6.22222ZM1 5.05556C1.36667 5.05556 1.66667 4.70556 1.66667 4.27778C1.66667 4.08333 1.6 3.88889 1.5 3.77222L1.93333 2.72222H2C2.16667 2.72222 2.33333 2.64444 2.43333 2.52778L3.33333 3.07222V3.11111C3.33333 3.53889 3.63333 3.88889 4 3.88889C4.36667 3.88889 4.66667 3.53889 4.66667 3.11111C4.66667 2.91667 4.6 2.76111 4.5 2.60556L4.93333 1.55556H5C5.36667 1.55556 5.66667 1.20556 5.66667 0.777778C5.66667 0.35 5.36667 0 5 0C4.63333 0 4.33333 0.35 4.33333 0.777778C4.33333 0.972222 4.4 1.16667 4.5 1.28333L4.06667 2.33333H4C3.83333 2.33333 3.66667 2.41111 3.56667 2.52778L2.66667 2.02222V1.94444C2.66667 1.51667 2.36667 1.16667 2 1.16667C1.63333 1.16667 1.33333 1.51667 1.33333 1.94444C1.33333 2.13889 1.4 2.33333 1.5 2.45L1.06667 3.5H1C0.633333 3.5 0.333333 3.85 0.333333 4.27778C0.333333 4.70556 0.633333 5.05556 1 5.05556Z" fill="#3FA08D"/>
</svg>
