<svg preserveAspectRatio="none" width="100%" height="100%" overflow="visible" style="display: block;" viewBox="0 0 69.7125 73.6045" fill="none" xmlns="http://www.w3.org/2000/svg">
<g id="Subtract" filter="url(#filter0_dd_0_4)">
<path d="M36.8018 7.00991C43.2378 7.01004 48.9788 9.98429 52.7263 14.633C53.8385 16.0127 53.4081 17.9931 51.9804 19.0429C50.2627 20.306 47.829 19.6946 46.341 18.1676C43.8478 15.6089 40.3645 14.0198 36.5098 14.0197C28.9283 14.0197 22.7824 20.1658 22.7822 27.7472C22.7822 35.3288 28.9282 41.4757 36.5098 41.4757C37.5901 41.4757 38.5537 42.2945 38.5537 43.3749V46.0712C38.5537 47.0631 37.7937 47.9015 36.8018 47.9015C25.51 47.9015 16.3565 38.747 16.3565 27.4552C16.3566 16.1636 25.5101 7.00991 36.8018 7.00991Z" fill="var(--fill-0, #FFB21B)"/>
</g>
<defs>
<filter id="filter0_dd_0_4" x="9.53674e-07" y="0" width="69.7125" height="73.6045" filterUnits="userSpaceOnUse" color-interpolation-filters="sRGB">
<feFlood flood-opacity="0" result="BackgroundImageFix"/>
<feColorMatrix in="SourceAlpha" type="matrix" values="0 0 0 0 0 0 0 0 0 0 0 0 0 0 0 0 0 0 127 0" result="hardAlpha"/>
<feMorphology radius="2.33664" operator="erode" in="SourceAlpha" result="effect1_dropShadow_0_4"/>
<feOffset dy="2.33664"/>
<feGaussianBlur stdDeviation="1.16832"/>
<feComposite in2="hardAlpha" operator="out"/>
<feColorMatrix type="matrix" values="0 0 0 0 0.0470588 0 0 0 0 0.0470588 0 0 0 0 0.0509804 0 0 0 0.05 0"/>
<feBlend mode="normal" in2="BackgroundImageFix" result="effect1_dropShadow_0_4"/>
<feColorMatrix in="SourceAlpha" type="matrix" values="0 0 0 0 0 0 0 0 0 0 0 0 0 0 0 0 0 0 127 0" result="hardAlpha"/>
<feMorphology radius="2.33664" operator="erode" in="SourceAlpha" result="effect2_dropShadow_0_4"/>
<feOffset dy="9.34655"/>
<feGaussianBlur stdDeviation="9.34655"/>
<feComposite in2="hardAlpha" operator="out"/>
<feColorMatrix type="matrix" values="0 0 0 0 0.0470588 0 0 0 0 0.0470588 0 0 0 0 0.0509804 0 0 0 0.1 0"/>
<feBlend mode="normal" in2="effect1_dropShadow_0_4" result="effect2_dropShadow_0_4"/>
<feBlend mode="normal" in="SourceGraphic" in2="effect2_dropShadow_0_4" result="shape"/>
</filter>
</defs>
</svg>
