<svg preserveAspectRatio="xMidYMid meet" width="24" height="24" viewBox="0 0 24 24" fill="none" xmlns="http://www.w3.org/2000/svg">
<g id="GlobeHemisphereWest" clip-path="url(#clip0_0_27)">
<g id="Vector">
</g>
<path id="Vector_2" d="M12 21C16.9706 21 21 16.9706 21 12C21 7.02944 16.9706 3 12 3C7.02944 3 3 7.02944 3 12C3 16.9706 7.02944 21 12 21Z" stroke="#10575C" stroke-width="2" stroke-linecap="round" stroke-linejoin="round"/>
<path id="Vector_3" d="M7.11375 11.5556L8.3625 9.375C8.42842 9.26082 8.52327 9.16604 8.6375 9.1002C8.75172 9.03437 8.88128 8.99981 9.01312 9H10.5797C10.7063 9.00021 10.8309 8.96793 10.9416 8.90625L12.0937 8.2725C12.1444 8.24523 12.1914 8.21151 12.2334 8.17219L14.7572 5.89125C14.8828 5.77704 14.9659 5.62362 14.9929 5.45605C15.02 5.28849 14.9895 5.11669 14.9062 4.96875L13.9219 3.20531" stroke="#10575C" stroke-width="2" stroke-linecap="round" stroke-linejoin="round"/>
<path id="Vector_4" d="M6.35438 4.99031L5.25 7.60125C5.1754 7.778 5.17138 7.97662 5.23875 8.15625L6.31688 11.0316C6.36117 11.149 6.43426 11.2535 6.52942 11.3354C6.62459 11.4173 6.73879 11.474 6.86156 11.5003L8.87063 11.9325C8.98206 11.9564 9.08658 12.0054 9.17625 12.0757C9.26592 12.1461 9.33838 12.2359 9.38813 12.3384L9.74438 13.0762C9.80583 13.203 9.90173 13.3099 10.0211 13.3847C10.1405 13.4594 10.2785 13.4991 10.4194 13.4991H11.7131" stroke="#10575C" stroke-width="2" stroke-linecap="round" stroke-linejoin="round"/>
<path id="Vector_5" d="M19.9772 16.17L15.0666 13.1494C14.9773 13.0949 14.8777 13.0595 14.7741 13.0453L12.6347 12.7566C12.474 12.7348 12.3106 12.7657 12.169 12.8446C12.0273 12.9236 11.9151 13.0463 11.8491 13.1944L10.5647 16.0762C10.505 16.2104 10.486 16.359 10.51 16.5038C10.534 16.6487 10.5999 16.7833 10.6997 16.8909L12.5503 18.7969C12.6305 18.8831 12.6893 18.9871 12.7219 19.1003C12.7545 19.2135 12.7599 19.3327 12.7378 19.4484L12.4406 20.9897" stroke="#10575C" stroke-width="2" stroke-linecap="round" stroke-linejoin="round"/>
</g>
<defs>
<clipPath id="clip0_0_27">
<rect width="24" height="24" fill="white"/>
</clipPath>
</defs>
</svg>
