<svg preserveAspectRatio="xMidYMid meet" width="24" height="24" viewBox="0 0 24 24" fill="none" xmlns="http://www.w3.org/2000/svg">
<g id="boxicons:megaphone">
<path id="Vector" d="M21.57 3.18C21.4376 3.0872 21.2843 3.0286 21.1238 3.00941C20.9633 2.99021 20.8005 3.01103 20.65 3.07L7.82 8H4.01C2.91 8 2.01 8.9 2.01 10V14C2.01 15.1 2.91 16 4.01 16H7.82L8.82 16.39L8.35 17.79C8.02 18.79 8.52 19.89 9.5 20.28L12.64 21.54C12.88 21.63 13.13 21.68 13.38 21.68C13.67 21.68 13.96 21.62 14.22 21.49C14.72 21.26 15.1 20.83 15.27 20.31L15.69 19.04L20.62 20.94C20.74 20.98 20.86 21.01 20.98 21.01C21.18 21.01 21.38 20.95 21.55 20.83C21.82 20.64 21.98 20.33 21.98 20.01V4C21.98 3.67 21.82 3.36 21.55 3.18H21.57ZM4 10H7V14H4V10ZM13.39 19.68L10.25 18.42L10.69 17.1L13.84 18.31L13.39 19.67V19.68ZM20 18.55L9 14.32V9.69L20 5.46V18.55Z" fill="#3FA08D"/>
</g>
</svg>
