<svg width="24" height="24" viewBox="0 0 24 24" fill="none" xmlns="http://www.w3.org/2000/svg">
<g clip-path="url(#clip0)">
<path d="M8.25 5.25C8.25 4.25544 8.64509 3.30161 9.34835 2.59835C10.0516 1.89509 11.0054 1.5 12 1.5C12.9946 1.5 13.9484 1.89509 14.6517 2.59835C15.3549 3.30161 15.75 4.25544 15.75 5.25V6H19.5C19.6989 6 19.8897 6.07902 20.0303 6.21967C20.171 6.36032 20.25 6.55109 20.25 6.75V10.5C21.2446 10.5 22.1984 10.8951 22.9017 11.5983C23.6049 12.3016 24 13.2554 24 14.25C24 15.2446 23.6049 16.1984 22.9017 16.9017C22.1984 17.6049 21.2446 18 20.25 18V21.75C20.25 21.9489 20.171 22.1397 20.0303 22.2803C19.8897 22.421 19.6989 22.5 19.5 22.5H4.5C4.30109 22.5 4.11032 22.421 3.96967 22.2803C3.82902 22.1397 3.75 21.9489 3.75 21.75V17.25C2.75544 17.25 1.80161 16.8549 1.09835 16.1517C0.395088 15.4484 0 14.4946 0 13.5C0 12.5054 0.395088 11.5516 1.09835 10.8483C1.80161 10.1451 2.75544 9.75 3.75 9.75V6.75C3.75 6.55109 3.82902 6.36032 3.96967 6.21967C4.11032 6.07902 4.30109 6 4.5 6H8.25V5.25Z" stroke="#10575C" stroke-width="2" stroke-linecap="round" stroke-linejoin="round"/>
</g>
<defs>
<clipPath id="clip0">
<rect width="24" height="24" fill="white"/>
</clipPath>
</defs>
</svg>
