<svg preserveAspectRatio="xMidYMid meet" width="20" height="21.814" viewBox="0 0 20 21.814" fill="none" xmlns="http://www.w3.org/2000/svg">
<g id="Group">
<g id="Vector">
</g>
<path id="Vector_2" d="M10 0C10.3753 0 10.7453 0.0203334 11.11 0.0610001C11.2405 0.0754455 11.3669 0.11546 11.482 0.178759C11.5971 0.242058 11.6986 0.327402 11.7806 0.429918C11.8627 0.532433 11.9238 0.650114 11.9604 0.776239C11.997 0.902365 12.0084 1.03447 11.994 1.165C11.9796 1.29553 11.9395 1.42194 11.8762 1.53701C11.8129 1.65208 11.7276 1.75356 11.6251 1.83565C11.5226 1.91773 11.4049 1.97882 11.2788 2.01543C11.1526 2.05204 11.0205 2.06345 10.89 2.049C9.24204 1.86464 7.57752 2.19694 6.12668 2.99992C4.67583 3.80291 3.51035 5.03689 2.79147 6.5312C2.07258 8.0255 1.8358 9.70627 2.11389 11.341C2.39198 12.9758 3.17119 14.4837 4.34374 15.6563C5.51629 16.8288 7.02423 17.608 8.65898 17.8861C10.2937 18.1642 11.9745 17.9274 13.4688 17.2085C14.9631 16.4896 16.1971 15.3242 17.0001 13.8733C17.8031 12.4225 18.1354 10.758 17.951 9.11C17.9366 8.97947 17.948 8.84736 17.9846 8.72124C18.0212 8.59511 18.0823 8.47743 18.1644 8.37492C18.3301 8.16788 18.5714 8.03517 18.835 8.006C19.0986 7.97683 19.363 8.05357 19.5701 8.21935C19.6726 8.30144 19.7579 8.40292 19.8212 8.51799C19.8845 8.63306 19.9246 8.75947 19.939 8.89C19.979 9.25467 19.9993 9.62467 20 10C20 15.523 15.523 20 10 20C4.477 20 0 15.523 0 10C0 4.477 4.477 0 10 0ZM9.968 5.877C10.0339 6.13372 9.99519 6.40611 9.86038 6.63431C9.72556 6.8625 9.50566 7.02785 9.249 7.094C8.54387 7.27871 7.93004 7.71367 7.52204 8.31771C7.11404 8.92175 6.93975 9.6536 7.0317 10.3767C7.12365 11.0998 7.47555 11.7647 8.02174 12.2474C8.56792 12.7301 9.27108 12.9976 10 13C10.6653 13.0003 11.3118 12.7794 11.8379 12.3721C12.3639 11.9648 12.7397 11.3942 12.906 10.75C12.9769 10.4984 13.1435 10.2845 13.3701 10.1542C13.5968 10.0239 13.8655 9.98752 14.1186 10.0529C14.3717 10.1183 14.5892 10.2802 14.7244 10.5039C14.8596 10.7277 14.9018 10.9955 14.842 11.25C14.5352 12.4259 13.8108 13.45 12.8042 14.1308C11.7975 14.8116 10.5774 15.1026 9.37176 14.9495C8.16616 14.7964 7.05754 14.2096 6.25301 13.2987C5.44848 12.3879 5.00307 11.2153 5 10C4.99983 8.89139 5.3681 7.81416 6.04692 6.93767C6.72573 6.06119 7.67659 5.43515 8.75 5.158C8.87719 5.12522 9.00958 5.11781 9.13963 5.13621C9.26968 5.1546 9.39483 5.19843 9.50794 5.2652C9.62104 5.33197 9.71989 5.42036 9.79882 5.52534C9.87776 5.63031 9.93525 5.74981 9.968 5.877ZM16.504 0.127C16.6865 0.202679 16.8425 0.330737 16.9524 0.495009C17.0622 0.659282 17.1209 0.852404 17.121 1.05V2.88H18.95C19.1478 2.88004 19.341 2.93871 19.5055 3.0486C19.6699 3.15848 19.798 3.31465 19.8737 3.49735C19.9493 3.68005 19.9692 3.88108 19.9306 4.07503C19.892 4.26898 19.7968 4.44715 19.657 4.587L16.12 8.12C15.9325 8.30755 15.6782 8.41294 15.413 8.413H13L11.172 10.242C10.9844 10.4296 10.7299 10.5351 10.4645 10.5351C10.1991 10.5351 9.94464 10.4296 9.757 10.242C9.56936 10.0544 9.46394 9.79986 9.46394 9.5345C9.46394 9.26914 9.56936 9.01464 9.757 8.827L11.586 7V4.586C11.5861 4.32081 11.6915 4.06649 11.879 3.879L15.414 0.343C15.5538 0.203067 15.7321 0.107758 15.9261 0.0691314C16.1201 0.0305044 16.3212 0.0502951 16.504 0.126M15.121 3.463L13.586 5V6.414H15L16.536 4.879H16.121C15.8558 4.879 15.6014 4.77364 15.4139 4.58611C15.2264 4.39857 15.121 4.14422 15.121 3.879V3.463Z" fill="#3FA08D"/>
</g>
</svg>
