<svg width="44" height="43" viewBox="0 0 44 43" fill="none" xmlns="http://www.w3.org/2000/svg">
<mask id="path-1-inside-1_67_935" fill="white">
<path d="M0 10C0 4.47715 4.47715 0 10 0H34C39.5228 0 44 4.47715 44 10V33C44 38.5228 39.5228 43 34 43H10C4.47715 43 0 38.5228 0 33V10Z"/>
</mask>
<path d="M0 10C0 4.47715 4.47715 0 10 0H34C39.5228 0 44 4.47715 44 10V33C44 38.5228 39.5228 43 34 43H10C4.47715 43 0 38.5228 0 33V10Z" fill="white"/>
<path d="M10 0V1H34V0V-1H10V0ZM44 10H43V33H44H45V10H44ZM34 43V42H10V43V44H34V43ZM0 33H1V10H0H-1V33H0ZM10 43V42C5.02944 42 1 37.9706 1 33H0H-1C-1 39.0751 3.92487 44 10 44V43ZM44 33H43C43 37.9706 38.9706 42 34 42V43V44C40.0751 44 45 39.0751 45 33H44ZM34 0V1C38.9706 1 43 5.02944 43 10H44H45C45 3.92487 40.0751 -1 34 -1V0ZM10 0V-1C3.92487 -1 -1 3.92487 -1 10H0H1C1 5.02944 5.02944 1 10 1V0Z" fill="#C2C3C3" mask="url(#path-1-inside-1_67_935)"/>
<path d="M16 24.5C17.3807 24.5 18.5 23.3807 18.5 22C18.5 20.6193 17.3807 19.5 16 19.5C14.6193 19.5 13.5 20.6193 13.5 22C13.5 23.3807 14.6193 24.5 16 24.5Z" stroke="#C2C3C3" stroke-width="1.5"/>
<path d="M28 24.5C29.3807 24.5 30.5 23.3807 30.5 22C30.5 20.6193 29.3807 19.5 28 19.5C26.6193 19.5 25.5 20.6193 25.5 22C25.5 23.3807 26.6193 24.5 28 24.5Z" stroke="#C2C3C3" stroke-width="1.5"/>
<path d="M22 17C23.1046 17 24 16.1046 24 15C24 13.8954 23.1046 13 22 13C20.8954 13 20 13.8954 20 15C20 16.1046 20.8954 17 22 17Z" stroke="#C2C3C3" stroke-width="1.4"/>
<path d="M22 31C23.1046 31 24 30.1046 24 29C24 27.8954 23.1046 27 22 27C20.8954 27 20 27.8954 20 29C20 30.1046 20.8954 31 22 31Z" stroke="#C2C3C3" stroke-width="1.4"/>
<path d="M18.4004 21.1998L20.1004 16.7998" stroke="#C2C3C3" stroke-width="1.2" stroke-linecap="round"/>
<path d="M25.6004 21.1998L23.9004 16.7998" stroke="#C2C3C3" stroke-width="1.2" stroke-linecap="round"/>
<path d="M18.4004 22.7998L20.1004 27.1998" stroke="#C2C3C3" stroke-width="1.2" stroke-linecap="round"/>
<path d="M25.6004 22.7998L23.9004 27.1998" stroke="#C2C3C3" stroke-width="1.2" stroke-linecap="round"/>
<path d="M18.5 22H25.5" stroke="#C2C3C3" stroke-width="1.2" stroke-linecap="round"/>
</svg>
