<svg width="44" height="43" viewBox="0 0 44 43" fill="none" xmlns="http://www.w3.org/2000/svg">
<mask id="path-1-inside-1_67_919" fill="white">
<path d="M0 10C0 4.47715 4.47715 0 10 0H34C39.5228 0 44 4.47715 44 10V33C44 38.5228 39.5228 43 34 43H10C4.47715 43 0 38.5228 0 33V10Z"/>
</mask>
<path d="M0 10C0 4.47715 4.47715 0 10 0H34C39.5228 0 44 4.47715 44 10V33C44 38.5228 39.5228 43 34 43H10C4.47715 43 0 38.5228 0 33V10Z" fill="white"/>
<path d="M10 0V1H34V0V-1H10V0ZM44 10H43V33H44H45V10H44ZM34 43V42H10V43V44H34V43ZM0 33H1V10H0H-1V33H0ZM10 43V42C5.02944 42 1 37.9706 1 33H0H-1C-1 39.0751 3.92487 44 10 44V43ZM44 33H43C43 37.9706 38.9706 42 34 42V43V44C40.0751 44 45 39.0751 45 33H44ZM34 0V1C38.9706 1 43 5.02944 43 10H44H45C45 3.92487 40.0751 -1 34 -1V0ZM10 0V-1C3.92487 -1 -1 3.92487 -1 10H0H1C1 5.02944 5.02944 1 10 1V0Z" fill="#C2C3C3" mask="url(#path-1-inside-1_67_919)"/>
<path d="M22 13L31 22L22 31L13 22L22 13Z" stroke="#C2C3C3" stroke-width="1.6" stroke-linejoin="round"/>
<path d="M22 23.5C22.8284 23.5 23.5 22.8284 23.5 22C23.5 21.1716 22.8284 20.5 22 20.5C21.1716 20.5 20.5 21.1716 20.5 22C20.5 22.8284 21.1716 23.5 22 23.5Z" fill="#C2C3C3"/>
<path d="M18.9996 22.9001C19.4967 22.9001 19.8996 22.4972 19.8996 22.0001C19.8996 21.503 19.4967 21.1001 18.9996 21.1001C18.5026 21.1001 18.0996 21.503 18.0996 22.0001C18.0996 22.4972 18.5026 22.9001 18.9996 22.9001Z" fill="#C2C3C3"/>
<path d="M24.9996 22.9001C25.4967 22.9001 25.8996 22.4972 25.8996 22.0001C25.8996 21.503 25.4967 21.1001 24.9996 21.1001C24.5026 21.1001 24.0996 21.503 24.0996 22.0001C24.0996 22.4972 24.5026 22.9001 24.9996 22.9001Z" fill="#C2C3C3"/>
<path d="M21.9996 19.9001C22.4967 19.9001 22.8996 19.4972 22.8996 19.0001C22.8996 18.503 22.4967 18.1001 21.9996 18.1001C21.5026 18.1001 21.0996 18.503 21.0996 19.0001C21.0996 19.4972 21.5026 19.9001 21.9996 19.9001Z" fill="#C2C3C3"/>
<path d="M21.9996 25.9001C22.4967 25.9001 22.8996 25.4972 22.8996 25.0001C22.8996 24.503 22.4967 24.1001 21.9996 24.1001C21.5026 24.1001 21.0996 24.503 21.0996 25.0001C21.0996 25.4972 21.5026 25.9001 21.9996 25.9001Z" fill="#C2C3C3"/>
</svg>
