<svg preserveAspectRatio="xMidYMid meet" width="24" height="24" viewBox="0 0 24 24" fill="none" xmlns="http://www.w3.org/2000/svg">
<g id="Plugs" clip-path="url(#clip0_0_23)">
<g id="Vector">
</g>
<path id="Vector_2" d="M13.5 13.5L11.25 15.75" stroke="#10575C" stroke-width="2" stroke-linecap="round" stroke-linejoin="round"/>
<g id="Vector_3">
</g>
<path id="Vector_4" d="M10.5 10.5L8.25 12.75" stroke="#10575C" stroke-width="2" stroke-linecap="round" stroke-linejoin="round"/>
<g id="Vector_5">
</g>
<path id="Vector_6" d="M6 10.5L13.5 18" stroke="#10575C" stroke-width="2" stroke-linecap="round" stroke-linejoin="round"/>
<path id="Vector_7" d="M5.44313 18.5569L2.25 21.75" stroke="#10575C" stroke-width="2" stroke-linecap="round" stroke-linejoin="round"/>
<path id="Vector_8" d="M12.375 16.875L9.65625 19.5938C9.2343 20.0157 8.66202 20.2527 8.06531 20.2527C7.4686 20.2527 6.89633 20.0157 6.47437 19.5938L4.40625 17.5228C3.98518 17.101 3.7487 16.5293 3.7487 15.9333C3.7487 15.3373 3.98518 14.7656 4.40625 14.3438L7.125 11.625" stroke="#10575C" stroke-width="2" stroke-linecap="round" stroke-linejoin="round"/>
<path id="Vector_9" d="M10.5 6L18 13.5" stroke="#10575C" stroke-width="2" stroke-linecap="round" stroke-linejoin="round"/>
<path id="Vector_10" d="M18.5569 5.44313L21.75 2.25" stroke="#10575C" stroke-width="2" stroke-linecap="round" stroke-linejoin="round"/>
<path id="Vector_11" d="M16.875 12.375L19.5938 9.65625C20.0157 9.2343 20.2527 8.66202 20.2527 8.06531C20.2527 7.4686 20.0157 6.89633 19.5938 6.47437L17.5228 4.40625C17.101 3.98518 16.5293 3.7487 15.9333 3.7487C15.3373 3.7487 14.7656 3.98518 14.3438 4.40625L11.625 7.125" stroke="#10575C" stroke-width="2" stroke-linecap="round" stroke-linejoin="round"/>
</g>
<defs>
<clipPath id="clip0_0_23">
<rect width="24" height="24" fill="white"/>
</clipPath>
</defs>
</svg>
